<svg width="94" height="107" viewBox="0 0 94 107" fill="none" xmlns="http://www.w3.org/2000/svg">
<path d="M94 53.5096C94 47.2889 86.2018 41.3936 74.2458 37.7378C77.0049 25.5645 75.7786 15.8794 70.3755 12.7786C69.13 12.0513 67.6739 11.7068 66.0836 11.7068V15.9751C66.9649 15.9751 67.6739 16.1474 68.2678 16.4727C70.8736 17.9657 72.0041 23.6504 71.1227 30.9621C70.9119 32.7613 70.5671 34.6562 70.1455 36.5894C66.3901 35.6706 62.2898 34.9624 57.9788 34.5031C55.3922 30.9621 52.7097 27.7465 50.0082 24.9328C56.2544 19.1333 62.1174 15.9559 66.1027 15.9559V11.6876C60.8337 11.6876 53.936 15.4392 46.9617 21.9469C39.9874 15.4774 33.0897 11.7642 27.8206 11.7642V16.0325C31.7868 16.0325 37.669 19.1907 43.9152 24.952C41.2328 27.7656 38.5503 30.9621 36.002 34.5031C31.6718 34.9624 27.5715 35.6706 23.8161 36.6085C23.3755 34.6945 23.0497 32.8379 22.8198 31.0578C21.9193 23.7461 23.0306 18.0614 25.6172 16.5493C26.192 16.2048 26.9393 16.0517 27.8206 16.0517V11.7833C26.2112 11.7833 24.755 12.1279 23.4904 12.8552C18.1064 15.9559 16.8993 25.6219 19.6775 37.757C7.75989 41.4319 0 47.3081 0 53.5096C0 59.7302 7.7982 65.6255 19.7542 69.2813C16.9951 81.4547 18.2214 91.1398 23.6245 94.2405C24.87 94.9679 26.3261 95.3124 27.9356 95.3124C33.2046 95.3124 40.1023 91.5608 47.0766 85.0531C54.051 91.5226 60.9486 95.2358 66.2177 95.2358C67.8271 95.2358 69.2833 94.8913 70.5479 94.164C75.9319 91.0632 77.139 81.3972 74.3608 69.2622C86.2401 65.6064 94 59.7111 94 53.5096ZM69.0534 40.7429C68.3445 43.212 67.4631 45.7577 66.4668 48.3034C65.6812 46.7721 64.8573 45.2409 63.9568 43.7096C63.0754 42.1784 62.1366 40.6854 61.1977 39.2308C63.9185 39.6327 66.5434 40.1304 69.0534 40.7429ZM60.278 61.1275C58.7835 63.7114 57.2507 66.1614 55.6604 68.4391C52.8055 68.688 49.9124 68.822 47 68.822C44.1068 68.822 41.2136 68.688 38.3779 68.4583C36.7876 66.1806 35.2356 63.7497 33.7411 61.1849C32.285 58.6775 30.9629 56.1318 29.7558 53.567C30.9437 51.0022 32.285 48.4373 33.722 45.9299C35.2165 43.346 36.7493 40.896 38.3396 38.6183C41.1945 38.3695 44.0876 38.2355 47 38.2355C49.8932 38.2355 52.7864 38.3695 55.6221 38.5991C57.2124 40.8769 58.7644 43.3077 60.2589 45.8725C61.715 48.3799 63.0371 50.9256 64.2442 53.4904C63.0371 56.0553 61.715 58.6201 60.278 61.1275ZM66.4668 58.6392C67.5014 61.204 68.3828 63.7689 69.1109 66.2571C66.6009 66.8696 63.9568 67.3864 61.2169 67.7884C62.1557 66.3146 63.0946 64.8025 63.976 63.2521C64.8573 61.7208 65.6812 60.1705 66.4668 58.6392ZM47.0383 79.0621C45.2564 77.2246 43.4745 75.1766 41.7118 72.9372C43.4362 73.0137 45.1989 73.0711 46.9808 73.0711C48.7819 73.0711 50.5638 73.0329 52.3074 72.9372C50.583 75.1766 48.8011 77.2246 47.0383 79.0621ZM32.7831 67.7884C30.0624 67.3864 27.4374 66.8888 24.9274 66.2763C25.6364 63.8072 26.5177 61.2615 27.5141 58.7158C28.2996 60.247 29.1235 61.7783 30.0241 63.3095C30.9246 64.8407 31.8443 66.3337 32.7831 67.7884ZM46.9425 27.957C48.7244 29.7945 50.5063 31.8425 52.2691 34.082C50.5446 34.0054 48.7819 33.948 47 33.948C45.1989 33.948 43.417 33.9863 41.6735 34.082C43.3979 31.8425 45.1798 29.7945 46.9425 27.957ZM32.764 39.2308C31.8251 40.7046 30.8863 42.2167 30.0049 43.7671C29.1235 45.2983 28.2996 46.8295 27.5141 48.3608C26.4794 45.796 25.598 43.2311 24.87 40.7429C27.3799 40.1495 30.0241 39.6327 32.764 39.2308ZM15.424 63.1947C8.64126 60.3044 4.25357 56.5146 4.25357 53.5096C4.25357 50.5045 8.64126 46.6956 15.424 43.8245C17.0718 43.1163 18.8728 42.4847 20.7313 41.8913C21.8235 45.6428 23.2605 49.5475 25.0424 53.5479C23.2797 57.5291 21.8618 61.4146 20.7888 65.147C18.892 64.5536 17.0909 63.9029 15.424 63.1947ZM25.7322 90.5464C23.1264 89.0534 21.9959 83.3687 22.8773 76.0571C23.0881 74.2579 23.4329 72.3629 23.8545 70.4298C27.6099 71.3485 31.7102 72.0567 36.0212 72.5161C38.6078 76.0571 41.2903 79.2727 43.9918 82.0863C37.7456 87.8859 31.8826 91.0632 27.8973 91.0632C27.0351 91.0441 26.307 90.8718 25.7322 90.5464ZM71.1802 75.9614C72.0807 83.273 70.9694 88.9577 68.3828 90.4698C67.808 90.8144 67.0607 90.9675 66.1794 90.9675C62.2132 90.9675 56.331 87.8093 50.0848 82.048C52.7672 79.2344 55.4497 76.0379 57.998 72.4969C62.3282 72.0376 66.4285 71.3294 70.1839 70.3915C70.6245 72.3247 70.9694 74.1813 71.1802 75.9614ZM78.5569 63.1947C76.9091 63.9029 75.108 64.5345 73.2495 65.1278C72.1574 61.3763 70.7203 57.4716 68.9384 53.4713C70.7012 49.4901 72.119 45.6046 73.192 41.8722C75.0889 42.4655 76.8899 43.1163 78.576 43.8245C85.3587 46.7147 89.7464 50.5045 89.7464 53.5096C89.7273 56.5146 85.3396 60.3236 78.5569 63.1947Z" fill="#61DAFB"/>
<path d="M46.9808 62.2567C51.8167 62.2567 55.737 58.3405 55.737 53.5095C55.737 48.6786 51.8167 44.7623 46.9808 44.7623C42.1449 44.7623 38.2246 48.6786 38.2246 53.5095C38.2246 58.3405 42.1449 62.2567 46.9808 62.2567Z" fill="#61DAFB"/>
</svg>
