<svg width="95" height="71" viewBox="0 0 95 71" fill="none" xmlns="http://www.w3.org/2000/svg">
<g clip-path="url(#clip0_11_8)">
<path d="M81.7519 40.788C78.4306 40.8066 75.5547 41.6015 73.1426 42.785C72.2519 41.0285 71.3613 39.4937 71.213 38.3475C71.0461 37.0163 70.842 36.2025 71.0461 34.6126C71.25 33.0223 72.1777 30.7666 72.1777 30.5817C72.159 30.4153 71.9734 29.6018 70.0625 29.5833C68.1515 29.5648 66.5 29.9531 66.3144 30.4523C66.1289 30.9515 65.7578 32.0979 65.5166 33.2812C65.1826 35.0192 61.6943 41.1762 59.709 44.4119C59.0595 43.1546 58.5029 42.0453 58.3914 41.1576C58.2246 39.8265 58.0203 39.0128 58.2246 37.4229C58.4287 35.8326 59.3564 33.577 59.3564 33.3921C59.3379 33.2257 59.1523 32.4122 57.2414 32.3937C55.3301 32.3752 53.6789 32.7635 53.4933 33.2627C53.3078 33.7619 53.1037 34.9453 52.6955 36.0916C52.3056 37.238 47.667 47.5182 46.4609 50.1992C45.8486 51.5674 45.3107 52.6583 44.9209 53.3979C44.5312 54.1374 44.9023 53.4533 44.8652 53.5273C44.5312 54.1559 44.3457 54.5072 44.3457 54.5072V54.5259C44.0859 54.9882 43.8076 55.4317 43.6775 55.4317C43.5847 55.4317 43.3992 54.1929 43.7146 52.4921C44.4012 48.9234 46.0711 43.3582 46.0527 43.1548C46.0527 43.0624 46.368 42.0822 44.9764 41.5832C43.6219 41.084 43.1396 41.916 43.0281 41.916C42.9168 41.916 42.824 42.2118 42.824 42.2118C42.824 42.2118 44.3269 35.9441 39.948 35.9441C37.2019 35.9441 33.4168 38.9209 31.5428 41.6389C30.3553 42.286 27.8318 43.654 25.1599 45.1149C24.1394 45.6696 23.0818 46.2613 22.0799 46.7974L21.876 46.5752C16.5693 40.9359 6.75388 36.9421 7.16209 29.3614C7.31052 26.6065 8.27537 19.34 26.0138 10.539C40.5422 3.32807 52.1759 5.30646 54.1982 9.70698C57.0742 15.9934 47.9824 27.6789 32.8791 29.3614C27.1271 30.0085 24.1025 27.7898 23.342 26.9578C22.5441 26.0887 22.4328 26.0518 22.1359 26.2182C21.6535 26.477 21.9504 27.2536 22.1359 27.7158C22.5812 28.8807 24.4367 30.9515 27.591 31.9869C30.3554 32.8929 37.1095 33.3921 45.2736 30.2489C54.4211 26.7174 61.5646 16.9179 59.4679 8.72703C57.3341 0.388228 43.4552 -2.34823 30.3371 2.29265C22.5254 5.06609 14.0644 9.39265 7.97849 15.069C0.742164 21.7992 -0.408226 27.6788 0.0741956 30.1195C1.76286 38.8281 13.8047 44.5044 18.6289 48.7015C18.3877 48.8307 18.165 48.9602 17.9609 49.0713C15.5488 50.2544 6.36423 55.0434 4.06345 60.1094C1.4658 65.8412 4.47166 69.9645 6.47556 70.5192C12.6728 72.2387 19.0185 69.151 22.4511 64.0664C25.865 58.9817 25.457 52.3809 23.8799 49.3671L23.824 49.2562L25.7166 48.1468C26.9414 47.4257 28.1474 46.7601 29.2049 46.1867C28.6113 47.7953 28.1844 49.6998 27.9619 52.4732C27.7021 55.7276 29.0381 59.943 30.8008 61.6071C31.5801 62.328 32.5078 62.3466 33.083 62.3466C35.124 62.3466 36.0517 60.6639 37.0722 58.6487C38.334 56.1896 39.4472 53.3422 39.4472 53.3422C39.4472 53.3422 38.0556 61.0524 41.8593 61.0524C43.251 61.0524 44.6426 59.2589 45.2734 58.3344V58.3529C45.2734 58.3529 45.3105 58.2974 45.3847 58.168C45.4626 58.0533 45.5368 57.9362 45.6074 57.8169V57.7799C46.164 56.8184 47.4072 54.6182 49.2627 50.9757C51.656 46.2794 53.957 40.3997 53.957 40.3997C53.957 40.3997 54.1797 41.8419 54.8662 44.2085C55.2742 45.6139 56.1648 47.1484 56.8513 48.646C56.2947 49.4226 55.9607 49.8665 55.9607 49.8665L55.9793 49.885C55.5342 50.4767 55.033 51.1055 54.5136 51.734C52.6211 53.9897 50.3574 56.56 50.0605 57.2995C49.708 58.1684 49.7822 58.8155 50.4687 59.3334C50.9697 59.7032 51.8603 59.777 52.8066 59.7032C54.5136 59.5921 55.7011 59.167 56.2949 58.9079C57.2226 58.5751 58.2802 58.0759 59.3008 57.3363C61.1562 55.9683 62.2881 54.0269 62.1767 51.4383C62.1211 50.0146 61.6572 48.6094 61.082 47.2782C61.249 47.0378 61.4162 46.7973 61.583 46.5386C64.5146 42.2673 66.7783 37.5711 66.7783 37.5711C66.7783 37.5711 67.0009 39.0133 67.6875 41.38C68.0398 42.5818 68.7451 43.8948 69.3759 45.189C66.6299 47.4263 64.9043 50.0148 64.3105 51.7159C63.2158 54.8591 64.0693 56.2828 65.6836 56.6156C66.407 56.7635 67.4463 56.4307 68.2254 56.0979C69.1902 55.7836 70.3592 55.2472 71.4355 54.4523C73.291 53.0841 75.0722 51.1797 74.9795 48.6096C74.9238 47.4263 74.6084 46.2614 74.1816 45.1521C76.5195 44.1906 79.5437 43.6359 83.3847 44.0982C91.6416 45.0596 93.2744 50.1997 92.9591 52.3445C92.6437 54.4895 90.9181 55.6726 90.3427 56.0424C89.7675 56.3937 89.582 56.5233 89.6377 56.782C89.7119 57.1705 89.9716 57.1518 90.4726 57.078C91.1591 56.9669 94.8144 55.3215 94.9629 51.3649C95.1855 46.2796 90.3427 40.7327 81.7519 40.788ZM18.0722 62.1804C15.3447 65.1572 11.5039 66.2851 9.87107 65.3236C8.10837 64.3067 8.79471 59.9247 12.1533 56.763C14.1943 54.8401 16.8476 53.0651 18.5918 51.9742C18.9814 51.7338 19.5752 51.3827 20.2802 50.9572C20.3916 50.8835 20.4658 50.8463 20.4658 50.8463C20.5957 50.7723 20.7441 50.6799 20.8926 50.5874C22.1357 55.0989 20.9482 59.0557 18.0722 62.1804ZM38.0185 48.6645C37.0722 50.9757 35.0683 56.9109 33.8623 56.5781C32.823 56.3007 32.1924 51.8078 33.658 47.3703C34.4002 45.1328 35.9773 42.4705 36.9051 41.4349C38.4082 39.7709 40.0408 39.2162 40.4492 39.9003C40.9316 40.788 38.6123 47.2223 38.0185 48.6645ZM54.4765 56.5041C54.0683 56.7077 53.6972 56.8554 53.5302 56.7447C53.4004 56.6707 53.697 56.3934 53.697 56.3934C53.697 56.3934 55.7566 54.1931 56.573 53.1762C57.0369 52.5847 57.5935 51.9006 58.1873 51.1238V51.3457C58.1875 54.008 55.6269 55.783 54.4765 56.5041ZM67.1678 53.6197C66.8709 53.3979 66.9082 52.7137 67.9099 50.569C68.2998 49.7184 69.1902 48.2947 70.7303 46.945C70.9158 47.4997 71.0273 48.0357 71.0086 48.5351C70.9902 51.8632 68.6152 53.102 67.1678 53.6197Z" fill="#CF649A"/>
</g>
<defs>
<clipPath id="clip0_11_8">
<rect width="95" height="71" fill="white"/>
</clipPath>
</defs>
</svg>
