<svg width="20" height="20" viewBox="0 0 20 20" fill="none" xmlns="http://www.w3.org/2000/svg">
    <path d="M17.9492 17.2109C18.3203 17.5195 18.8398 17.5898 19.2813 17.3828C19.7227 17.1757 20 16.7343 20 16.25V3.74995C20 3.26558 19.7188 2.82417 19.2813 2.61714C18.8438 2.41011 18.3242 2.47651 17.9492 2.78901L11.25 8.37104V9.99995V11.6289L17.9492 17.2109ZM10 13.75V9.99995V4.99995V3.74995C10 3.26558 9.71875 2.82417 9.28125 2.61714C8.84375 2.41011 8.32422 2.47651 7.94922 2.78901L0.449219 9.03901C0.164062 9.27729 0 9.62886 0 9.99995C0 10.371 0.164062 10.7226 0.449219 10.9609L7.94922 17.2109C8.32031 17.5195 8.83984 17.5898 9.28125 17.3828C9.72266 17.1757 10 16.7343 10 16.25V13.75Z" fill="#57B8FF"/>
</svg>
