<svg width="130" height="37" viewBox="0 0 130 37" fill="none" xmlns="http://www.w3.org/2000/svg">
<path d="M19.7072 0.969727C20.1 1.09936 20.5145 1.08318 20.9155 1.1426C23.9253 1.58814 26.6451 2.71961 29.0833 4.52892C29.2161 4.62879 29.2296 4.68552 29.1185 4.81785C28.043 6.07356 26.9757 7.33197 25.9137 8.59847C25.7945 8.74158 25.7295 8.73889 25.5859 8.63622C23.9469 7.4643 22.1264 6.72704 20.1325 6.44349C17.6862 6.09514 15.3158 6.40304 13.0889 7.47778C9.07951 9.41673 6.67107 12.6005 5.96671 16.9833C5.14592 22.0953 7.80345 27.3448 12.4686 29.7266C16.9575 32.0193 21.3489 31.6925 25.548 28.9111C25.7322 28.7896 25.8026 28.8004 25.9408 28.9652C26.9892 30.2181 28.043 31.463 29.105 32.7025C29.235 32.8538 29.1944 32.9132 29.0563 33.0157C26.9459 34.5848 24.6025 35.6595 22.0235 36.1806C18.1332 36.9692 14.3459 36.5992 10.7673 34.8791C5.42495 32.3082 2.10626 28.0983 0.819468 22.3194C0.678596 21.6821 0.597338 21.0366 0.529608 20.3885C0.524196 20.3372 0.553959 20.2643 0.467289 20.2454C0.467289 19.2571 0.467289 18.2687 0.467289 17.2804C0.551253 17.2587 0.521491 17.1886 0.529608 17.1373C0.586516 16.716 0.629807 16.2947 0.700243 15.8761C1.32605 12.1009 3.00299 8.85234 5.72023 6.15726C8.53767 3.365 11.9375 1.69072 15.8819 1.12903C16.226 1.08048 16.5836 1.10745 16.9114 0.972424C17.8406 0.969727 18.7752 0.969727 19.7072 0.969727Z" fill="#141820"/>
<path d="M120.547 22.3867C117.816 22.3867 115.085 22.3921 112.354 22.3813C112.067 22.3813 112.038 22.4434 112.102 22.708C112.839 25.7488 115.185 27.7525 118.325 28.0198C119.36 28.1089 120.384 28.0846 121.4 27.8497C122.957 27.4878 124.19 26.6588 125.076 25.3302C125.188 25.1654 125.261 25.1304 125.439 25.2356C126.295 25.7325 127.154 26.2186 128.021 26.6966C128.208 26.7992 128.222 26.8641 128.1 27.0422C126.425 29.4996 124.098 30.8958 121.151 31.2793C118.962 31.5628 116.798 31.4521 114.752 30.5799C111.214 29.0676 109.12 26.3834 108.543 22.5893C108.196 20.2993 108.391 18.0444 109.431 15.9408C111.005 12.7569 113.552 10.8289 117.101 10.2807C118.97 9.99174 120.823 10.07 122.614 10.7235C125.054 11.6147 126.761 13.3294 127.948 15.5817C129.026 17.6286 129.318 19.824 129.088 22.1059C129.067 22.3111 129.004 22.3975 128.766 22.3975C126.027 22.384 123.286 22.3867 120.547 22.3867ZM125.575 19.3028C125.534 19.0813 125.504 18.8897 125.461 18.6979C125.131 17.2262 124.5 15.9218 123.296 14.9525C121.275 13.324 118.978 13.0945 116.588 13.8345C114.099 14.6068 112.685 16.4106 112.116 18.9085C112.027 19.3001 112.035 19.3028 112.427 19.3028C116.687 19.3028 120.945 19.3028 125.204 19.3028C125.318 19.3028 125.437 19.3028 125.575 19.3028Z" fill="#141820"/>
<path d="M58.921 24.3932C59.8364 24.9225 60.7275 25.4356 61.6194 25.9486C61.9495 26.1404 61.9522 26.1431 61.7439 26.4834C60.3 28.8327 58.2329 30.3908 55.5562 31.0471C52.2918 31.8437 49.1791 31.4386 46.4158 29.4241C43.8531 27.5581 42.4253 25.017 42.1572 21.8493C41.9838 19.7836 42.2195 17.7744 43.1839 15.9219C44.8174 12.7813 47.3749 10.8316 50.921 10.278C53.0937 9.93781 55.2122 10.1349 57.2305 11.0612C59.1429 11.9388 60.6301 13.2809 61.6357 15.1388C61.752 15.3576 61.7628 15.4655 61.5139 15.6032C60.6707 16.0597 59.8418 16.5458 59.0157 17.0291C58.8507 17.1263 58.7858 17.1128 58.6884 16.9373C57.5095 14.8282 55.6619 13.7616 53.2807 13.6104C50.5851 13.4376 48.4152 14.4502 46.8683 16.6673C45.7738 18.2335 45.4758 20.005 45.744 21.8629C46.1178 24.4769 47.5428 26.3915 49.9891 27.3583C52.7768 28.4601 55.4181 28.0523 57.7073 26.0135C58.2086 25.5598 58.59 25.0035 58.921 24.3932Z" fill="#141820"/>
<path d="M97.3686 24.3908C98.3381 24.9498 99.2914 25.5088 100.256 26.057C100.43 26.1569 100.332 26.2352 100.278 26.3325C99.3816 27.9095 98.1217 29.1219 96.5506 30.0239C94.5322 31.1824 92.3515 31.5658 90.0481 31.3444C86.3451 30.9853 83.6088 29.1328 81.7942 25.9328C80.7724 24.1316 80.4667 22.1522 80.5695 20.1026C80.6967 17.5669 81.5796 15.339 83.3247 13.4676C85.2998 11.3531 87.7484 10.2757 90.6416 10.1488C93.0008 10.0461 95.1852 10.5565 97.1486 11.8906C98.4193 12.752 99.4113 13.8592 100.118 15.2228C100.205 15.3903 100.197 15.4632 100.023 15.5604C99.1588 16.0411 98.3029 16.5353 97.4471 17.0321C97.301 17.1158 97.2387 17.1266 97.1404 16.9538C95.8977 14.7395 93.9523 13.6674 91.446 13.5999C88.5447 13.5189 86.3153 14.7502 84.9472 17.286C82.9991 20.8965 84.2915 26.0353 88.9055 27.5368C91.5218 28.3875 93.9821 27.9364 96.0897 26.0678C96.6209 25.5952 97.0268 25.0227 97.3686 24.3908Z" fill="#141820"/>
<path d="M36.221 18.7739C36.1451 23.8318 34.3003 28.1363 30.6565 31.6738C30.5076 31.8196 30.4344 31.8439 30.28 31.6576C29.237 30.4019 28.1805 29.1597 27.1184 27.9203C26.9966 27.7771 27.0101 27.715 27.1402 27.5827C29.9522 24.6959 31.1984 21.2583 30.7378 17.2508C30.41 14.3938 29.1557 11.9688 27.1293 9.93535C27.0155 9.82189 26.9939 9.76795 27.1049 9.63562C28.1778 8.37991 29.2478 7.12151 30.3071 5.85501C30.4398 5.69562 30.513 5.71459 30.6457 5.84422C33.753 8.84703 35.5979 12.4737 36.1045 16.7647C36.1803 17.4264 36.2264 18.096 36.221 18.7739Z" fill="#141820"/>
<path d="M102.226 16.0922C102.226 11.299 102.229 6.50569 102.218 1.71246C102.218 1.41813 102.299 1.3641 102.576 1.36949C103.548 1.38846 104.521 1.38576 105.496 1.36949C105.753 1.3641 105.799 1.4451 105.799 1.68279C105.794 10.5888 105.794 19.4921 105.794 28.3982C105.794 29.138 105.788 29.8807 105.797 30.6206C105.799 30.8069 105.761 30.8744 105.556 30.8717C104.524 30.8609 103.491 30.8609 102.457 30.8717C102.245 30.8744 102.221 30.7961 102.223 30.6179C102.231 29.7672 102.226 28.9166 102.226 28.0687C102.226 24.0774 102.226 20.0835 102.226 16.0922Z" fill="#141820"/>
<path d="M74.6415 13.8966C75.0528 13.1891 75.5028 12.5221 76.1016 11.9659C77.1902 10.9558 78.5123 10.486 79.9698 10.3401C80.2358 10.3132 80.5037 10.3105 80.7715 10.2862C80.9348 10.2726 80.9726 10.3374 80.9699 10.4887C80.9645 11.585 80.9645 12.6814 80.9699 13.7779C80.9699 13.9426 80.9375 13.9803 80.7526 13.9776C78.9083 13.9587 77.2687 14.4881 75.988 15.8625C75.1583 16.751 74.839 17.8663 74.701 19.0464C74.6442 19.5379 74.6388 20.032 74.6388 20.5262C74.6415 23.8748 74.6361 27.2259 74.6469 30.5745C74.6469 30.8257 74.582 30.8797 74.3376 30.8743C73.3464 30.858 72.3517 30.8634 71.3605 30.8715C71.1657 30.8743 71.09 30.8392 71.09 30.6177C71.0954 24.0476 71.0954 17.4774 71.09 10.9073C71.09 10.7074 71.1332 10.6372 71.3497 10.6399C72.3706 10.6507 73.3951 10.6507 74.416 10.6399C74.6063 10.6372 74.6469 10.6967 74.6442 10.8721C74.6361 11.8795 74.6415 12.8894 74.6415 13.8966Z" fill="#141820"/>
<path d="M67.3436 20.7563C67.3436 24.0264 67.3409 27.2967 67.349 30.5696C67.349 30.818 67.2814 30.8775 67.0379 30.8748C66.035 30.8613 65.033 30.864 64.0301 30.8721C63.8407 30.8748 63.7812 30.8316 63.7812 30.6318C63.7866 24.0508 63.7866 17.4698 63.7812 10.8889C63.7812 10.662 63.8651 10.6378 64.0581 10.6405C65.0411 10.6486 66.0242 10.654 67.0054 10.6378C67.2705 10.6323 67.3517 10.6944 67.349 10.9726C67.3382 14.2347 67.3436 17.4941 67.3436 20.7563Z" fill="#141820"/>
<path d="M63.186 4.6587C63.1779 3.33557 64.2096 2.30937 65.4993 2.25265C66.8295 2.19322 67.9596 3.37063 67.946 4.61825C67.9325 5.94417 66.9296 6.98115 65.6129 6.98924C64.2294 6.99733 63.1914 6.00089 63.186 4.6587Z" fill="#141820"/>
</svg>
