<svg width="20" height="20" viewBox="0 0 20 20" fill="none" xmlns="http://www.w3.org/2000/svg">
    <path d="M2.05078 17.2109C1.67969 17.5195 1.16016 17.5898 0.71875 17.3828C0.277344 17.1757 0 16.7343 0 16.25V3.74995C0 3.26558 0.28125 2.82417 0.71875 2.61714C1.15625 2.41011 1.67578 2.47651 2.05078 2.78901L8.75 8.37104V9.99995V11.6289L2.05078 17.2109ZM10 13.75V9.99995V4.99995V3.74995C10 3.26558 10.2812 2.82417 10.7187 2.61714C11.1562 2.41011 11.6758 2.47651 12.0508 2.78901L19.5508 9.03901C19.8359 9.27729 20 9.62886 20 9.99995C20 10.371 19.8359 10.7226 19.5508 10.9609L12.0508 17.2109C11.6797 17.5195 11.1602 17.5898 10.7187 17.3828C10.2773 17.1757 10 16.7343 10 16.25V13.75Z" fill="#57B8FF"/>
</svg>
