<svg width="20" height="23" viewBox="0 0 20 23" fill="none" xmlns="http://www.w3.org/2000/svg">
    <path d="M1.42857 1.42859C0.638393 1.42859 0 2.06698 0 2.85716V7.14287C0 7.93305 0.638393 8.57145 1.42857 8.57145C2.21875 8.57145 2.85714 7.93305 2.85714 7.14287V4.28573H5.71429C6.50446 4.28573 7.14286 3.64734 7.14286 2.85716C7.14286 2.06698 6.50446 1.42859 5.71429 1.42859H1.42857ZM2.85714 15.7143C2.85714 14.9241 2.21875 14.2857 1.42857 14.2857C0.638393 14.2857 0 14.9241 0 15.7143V20C0 20.7902 0.638393 21.4286 1.42857 21.4286H5.71429C6.50446 21.4286 7.14286 20.7902 7.14286 20C7.14286 19.2098 6.50446 18.5714 5.71429 18.5714H2.85714V15.7143ZM14.2857 1.42859C13.4955 1.42859 12.8571 2.06698 12.8571 2.85716C12.8571 3.64734 13.4955 4.28573 14.2857 4.28573H17.1429V7.14287C17.1429 7.93305 17.7813 8.57145 18.5714 8.57145C19.3616 8.57145 20 7.93305 20 7.14287V2.85716C20 2.06698 19.3616 1.42859 18.5714 1.42859H14.2857ZM20 15.7143C20 14.9241 19.3616 14.2857 18.5714 14.2857C17.7813 14.2857 17.1429 14.9241 17.1429 15.7143V18.5714H14.2857C13.4955 18.5714 12.8571 19.2098 12.8571 20C12.8571 20.7902 13.4955 21.4286 14.2857 21.4286H18.5714C19.3616 21.4286 20 20.7902 20 20V15.7143Z" fill="#57B8FF"/>
</svg>
