<svg width="34" height="39" viewBox="0 0 34 39" fill="none" xmlns="http://www.w3.org/2000/svg">
<g clip-path="url(#clip0_503_2)">
<path d="M17.0077 10.7009C12.1809 10.7009 8.28758 14.5942 8.28758 19.421C8.28758 24.2478 12.1809 28.1411 17.0077 28.1411C21.8345 28.1411 25.7278 24.2478 25.7278 19.421C25.7278 14.5942 21.8345 10.7009 17.0077 10.7009ZM17.0077 25.0902C13.8885 25.0902 11.3385 22.5478 11.3385 19.421C11.3385 16.2942 13.8809 13.7518 17.0077 13.7518C20.1345 13.7518 22.6769 16.2942 22.6769 19.421C22.6769 22.5478 20.1269 25.0902 17.0077 25.0902ZM28.1184 10.3442C28.1184 11.475 27.2077 12.3781 26.0845 12.3781C24.9537 12.3781 24.0505 11.4674 24.0505 10.3442C24.0505 9.22098 24.9612 8.31026 26.0845 8.31026C27.2077 8.31026 28.1184 9.22098 28.1184 10.3442ZM33.8938 12.4085C33.7648 9.68392 33.1425 7.27053 31.1465 5.28214C29.1581 3.29374 26.7447 2.67142 24.0202 2.53481C21.2121 2.37544 12.7956 2.37544 9.98758 2.53481C7.27061 2.66383 4.85722 3.28615 2.86124 5.27455C0.865255 7.26294 0.250523 9.67633 0.113916 12.4009C-0.045459 15.2089 -0.045459 23.6254 0.113916 26.4335C0.242934 29.158 0.865255 31.5714 2.86124 33.5598C4.85722 35.5482 7.26302 36.1705 9.98758 36.3071C12.7956 36.4665 21.2121 36.4665 24.0202 36.3071C26.7447 36.1781 29.1581 35.5558 31.1465 33.5598C33.1349 31.5714 33.7572 29.158 33.8938 26.4335C34.0532 23.6254 34.0532 15.2165 33.8938 12.4085ZM30.2661 29.4464C29.6742 30.9339 28.5282 32.0799 27.0331 32.6795C24.7943 33.5674 19.4818 33.3625 17.0077 33.3625C14.5336 33.3625 9.21347 33.5598 6.98222 32.6795C5.49472 32.0875 4.34874 30.9415 3.74918 29.4464C2.86124 27.2076 3.06615 21.8951 3.06615 19.421C3.06615 16.9469 2.86883 11.6268 3.74918 9.39553C4.34115 7.90803 5.48713 6.76205 6.98222 6.16249C9.22106 5.27455 14.5336 5.47946 17.0077 5.47946C19.4818 5.47946 24.8019 5.28214 27.0331 6.16249C28.5206 6.75446 29.6666 7.90044 30.2661 9.39553C31.1541 11.6344 30.9492 16.9469 30.9492 19.421C30.9492 21.8951 31.1541 27.2152 30.2661 29.4464Z" fill="white"/>
</g>
<defs>
<clipPath id="clip0_503_2">
<rect width="34" height="38.8571" fill="white"/>
</clipPath>
</defs>
</svg>
