<svg width="144" height="37" viewBox="0 0 144 37" fill="none" xmlns="http://www.w3.org/2000/svg">
<path d="M0.25235 12.5469C0.40684 12.1525 0.404134 11.7284 0.479981 11.3205C1.38239 6.4256 5.4123 2.30858 10.3256 1.27394C11.2606 1.07679 12.2037 0.974123 13.1604 0.97682C16.5669 0.98491 19.9734 0.949849 23.38 0.987607C26.7161 1.02545 29.6076 2.23298 32.0251 4.51299C34.147 6.51469 35.418 8.97567 35.8788 11.8473C35.9818 12.4821 36.0224 13.1224 36.0224 13.7653C36.0197 17.1745 36.0468 20.5863 36.0088 23.9955C35.9709 27.3155 34.7595 30.1925 32.4695 32.6022C30.4587 34.7146 27.9844 35.9735 25.1008 36.4436C24.8271 36.4895 24.5399 36.4598 24.277 36.5759C20.1442 36.5759 16.0113 36.5759 11.8785 36.5759C11.8595 36.4922 11.7864 36.5192 11.7349 36.5138C11.2633 36.4544 10.7945 36.3788 10.3283 36.2815C5.41771 35.2469 1.38789 31.1272 0.485393 26.2349C0.409546 25.8271 0.412252 25.4029 0.257762 25.0085C0.25235 20.8538 0.25235 16.7017 0.25235 12.5469ZM11.9246 7.94911C11.9246 8.12208 11.9246 8.23014 11.9246 8.33541C11.9246 12.4497 11.9218 16.5613 11.9327 20.6755C11.9327 20.9537 11.8568 21.0024 11.6021 20.9699C11.1062 20.9051 10.6102 20.9348 10.1224 21.0375C9.11962 21.2481 8.2145 21.6453 7.55866 22.4692C6.70225 23.5497 6.91635 25.0545 8.03016 25.8027C8.50175 26.1188 9.03565 26.2647 9.5885 26.3457C10.8352 26.5321 12.0302 26.4241 13.0736 25.6407C14.1767 24.8113 14.8324 23.7659 14.8081 22.3206C14.7674 19.9893 14.7972 17.6553 14.7972 15.3213C14.7972 15.2267 14.7972 15.1322 14.7972 15.0377C14.9002 15.0538 14.9354 15.1079 14.9815 15.1565C16.1848 16.4019 17.3935 17.6472 18.5967 18.8925C18.8948 19.2005 18.8894 19.2032 19.1848 18.9088C20.4341 17.6634 21.6862 16.4207 22.9382 15.1782C23.006 15.1106 23.0575 14.9971 23.1903 15.0025C23.1903 15.0755 23.1903 15.1349 23.1903 15.1943C23.1903 19.9893 23.193 24.7843 23.1849 29.5794C23.1849 29.8197 23.2309 29.8953 23.4857 29.89C24.2607 29.8711 25.0358 29.8765 25.8109 29.8873C26.0114 29.8899 26.0765 29.8495 26.0765 29.6334C26.0711 22.5043 26.0711 15.3753 26.0684 8.24902C26.0684 8.1815 26.1171 8.08963 26.0087 8.0383C23.7052 10.3318 21.4016 12.6253 19.1035 14.9242C18.9599 15.0674 18.8894 15.0863 18.7404 14.9323C17.7702 13.9274 16.7918 12.9305 15.8162 11.9337C14.5371 10.6208 13.2552 9.31063 11.9246 7.94911Z" fill="#141820"/>
<path d="M45.8021 15.7288C45.9242 15.7342 45.9187 15.6532 45.9431 15.61C46.9323 13.8595 48.4255 12.9519 50.4472 12.914C51.3361 12.8978 52.2114 12.9815 53.0515 13.2922C54.1763 13.7082 54.9812 14.4727 55.5042 15.5398C55.534 15.6019 55.5611 15.664 55.5936 15.7261C55.6018 15.7397 55.6261 15.7478 55.656 15.7667C56.0327 15.1373 56.4771 14.5619 57.0516 14.0973C58.0679 13.2787 59.2576 12.9626 60.5341 12.9221C61.5341 12.8896 62.5151 12.9924 63.4365 13.4245C65.0192 14.1648 65.8408 15.4804 66.2304 17.1147C66.4234 17.9252 66.5045 18.7491 66.5045 19.5811C66.5045 22.6364 66.5018 25.6916 66.5127 28.7469C66.5127 29.0252 66.4342 29.0873 66.1681 29.0819C65.0761 29.0657 63.984 29.0684 62.8891 29.0819C62.6262 29.0846 62.5422 29.0306 62.5422 28.7496C62.553 25.9023 62.5476 23.0551 62.5503 20.2078C62.5503 19.7026 62.5178 19.2002 62.4094 18.7058C62.0273 16.9823 60.8674 16.3339 59.244 16.5014C57.7292 16.6581 56.7318 17.6468 56.3985 19.2191C56.2901 19.7351 56.2549 20.2564 56.2522 20.7778C56.2495 23.4387 56.2468 26.0969 56.2576 28.7577C56.2576 29.0198 56.1953 29.0873 55.9324 29.0819C54.8294 29.0657 53.7264 29.063 52.6234 29.0819C52.3361 29.0873 52.29 28.9928 52.29 28.7361C52.2982 25.7214 52.2955 22.7039 52.2955 19.6892C52.2955 19.2218 52.2494 18.7653 52.1247 18.3115C51.8266 17.2174 51.141 16.5852 49.9864 16.4906C48.4689 16.3691 47.1897 16.8932 46.4797 18.2601C46.1464 18.903 46.0189 19.6 46.0162 20.3212C46.0135 23.1281 46.0108 25.9375 46.0216 28.7442C46.0216 29.0198 45.9458 29.0846 45.6775 29.0819C44.5556 29.0657 43.4336 29.0684 42.3089 29.0819C42.0813 29.0846 42.0325 29.0171 42.0325 28.7983C42.0379 23.725 42.0379 18.6545 42.0352 13.5812C42.0352 13.3922 42.0568 13.303 42.2845 13.3057C43.3766 13.3192 44.4688 13.3165 45.5637 13.3057C45.7724 13.303 45.8021 13.3787 45.7994 13.557C45.7886 14.189 45.7967 14.8212 45.7967 15.456C45.8021 15.5479 45.8021 15.6397 45.8021 15.7288Z" fill="#141820"/>
<path d="M139.72 26.9237C139.382 27.2748 139.11 27.6476 138.772 27.9664C137.742 28.9336 136.479 29.3495 135.1 29.4414C133.731 29.5333 132.403 29.3306 131.192 28.6526C129.699 27.8178 128.847 26.5698 128.812 24.8246C128.774 22.9769 129.523 21.5587 131.124 20.6105C132.208 19.9703 133.409 19.6812 134.639 19.4894C136.224 19.2408 137.821 19.2381 139.42 19.2571C139.666 19.2598 139.723 19.2004 139.728 18.9518C139.763 17.0122 138.498 16.1451 136.875 15.937C135.059 15.702 133.441 16.2018 132.053 17.3985C131.929 17.5066 131.872 17.5012 131.756 17.3824C131.203 16.815 130.636 16.2585 130.075 15.6994C129.812 15.4373 129.812 15.4373 130.094 15.1752C131.224 14.1217 132.571 13.495 134.078 13.1816C135.801 12.8223 137.525 12.7602 139.227 13.2545C141.704 13.9758 142.853 15.4994 143.192 18.055C143.276 18.6844 143.279 19.3165 143.279 19.9486C143.282 22.8851 143.276 25.8188 143.287 28.7552C143.287 29.0253 143.211 29.0794 142.956 29.0767C141.964 29.0605 140.97 29.0632 139.978 29.0767C139.763 29.0794 139.715 29.0146 139.717 28.8119C139.728 28.1825 139.72 27.5531 139.72 26.9237ZM138.249 22.0098C137.514 22.0287 136.78 22.0584 136.054 22.1611C135.127 22.2934 134.224 22.5096 133.447 23.0714C133.002 23.3902 132.788 23.8251 132.769 24.3573C132.737 25.2542 133.314 25.9917 134.289 26.3078C135.035 26.5482 135.796 26.532 136.555 26.4212C137.81 26.2375 138.761 25.6351 139.235 24.4141C139.52 23.6793 139.498 22.9067 139.496 22.1341C139.496 21.9909 139.409 22.0071 139.32 22.0071C138.962 22.0098 138.606 22.0098 138.249 22.0098Z" fill="#141820"/>
<path d="M81.4341 26.5886C81.0418 27.2505 80.5701 27.8367 79.9956 28.3445C79.2362 29.0118 78.3371 29.3386 77.345 29.4224C76.0121 29.5332 74.7052 29.4386 73.5049 28.7714C72.1115 27.9988 71.3503 26.7777 71.0085 25.2622C70.857 24.5841 70.7947 23.898 70.7947 23.2037C70.7947 20.0107 70.7974 16.8176 70.7866 13.6219C70.7866 13.3544 70.857 13.2977 71.1149 13.3031C72.2179 13.3193 73.3209 13.3166 74.4239 13.3031C74.6809 13.3004 74.7675 13.3463 74.7675 13.6299C74.7539 16.299 74.7539 18.968 74.7648 21.6397C74.7675 22.4096 74.8108 23.1795 75.0525 23.9223C75.6378 25.7241 76.803 26.0294 78.2532 25.8701C79.7187 25.708 80.9768 24.6247 81.1987 22.6446C81.2393 22.2906 81.2501 21.9368 81.2474 21.5803C81.2447 18.9193 81.2474 16.2611 81.242 13.6003C81.242 13.3815 81.2772 13.3004 81.5243 13.3031C82.657 13.3193 83.7898 13.3193 84.9225 13.3031C85.1687 13.3004 85.2039 13.3815 85.2039 13.6003C85.1985 18.6627 85.1985 23.7252 85.2039 28.7875C85.2039 29.0253 85.1363 29.0794 84.909 29.0767C83.8358 29.0658 82.7625 29.0658 81.6893 29.0767C81.4801 29.0794 81.4233 29.0225 81.4287 28.8146C81.4422 28.0717 81.4341 27.3315 81.4341 26.5886Z" fill="#141820"/>
<path d="M93.2287 25.9055C93.4046 25.9055 93.5101 25.9055 93.6156 25.9055C96.3582 25.9055 99.0981 25.9083 101.841 25.9001C102.082 25.9001 102.164 25.9461 102.158 26.2027C102.142 27.0726 102.145 27.9424 102.155 28.8122C102.158 29.0202 102.099 29.0743 101.889 29.0743C97.518 29.0689 93.1494 29.0689 88.7789 29.0743C88.5589 29.0743 88.5237 28.9987 88.5264 28.8069C88.5345 27.7479 88.5345 26.6917 88.5264 25.6328C88.5264 25.4707 88.5805 25.3625 88.6887 25.2464C91.4124 22.3856 94.1306 19.5194 96.8488 16.6532C96.8867 16.6127 96.9462 16.583 96.9462 16.5074C96.8515 16.4344 96.7406 16.4749 96.6378 16.4749C94.1739 16.4722 91.7109 16.4668 89.247 16.4803C88.9737 16.483 88.9277 16.402 88.9331 16.1534C88.9494 15.2836 88.9467 14.4138 88.9331 13.5439C88.9304 13.344 88.9927 13.3035 89.182 13.3035C93.2937 13.3089 97.4071 13.3089 101.519 13.3035C101.703 13.3035 101.77 13.3359 101.768 13.5412C101.757 14.6002 101.76 15.6564 101.765 16.7154C101.765 16.8585 101.714 16.9504 101.622 17.0477C98.8411 19.9786 96.0633 22.9124 93.2287 25.9055Z" fill="#141820"/>
<path d="M113.257 21.1592C113.316 18.0714 114.527 15.57 117.297 14.0652C120.181 12.4985 123.148 12.4498 126.064 14.0842C126.568 14.3678 126.996 14.7514 127.406 15.1566C127.52 15.2674 127.541 15.3349 127.417 15.4592C126.59 16.2722 125.769 17.0908 124.95 17.912C124.828 18.0363 124.766 18.0201 124.655 17.9039C124.07 17.315 123.425 16.7937 122.606 16.5856C121.368 16.2723 120.214 16.5505 119.189 17.2664C117.668 18.3281 117.072 19.8517 117.227 21.6454C117.384 23.4688 118.302 24.8277 120.023 25.557C121.536 26.1973 123.52 26.0379 124.75 24.5683C124.855 24.4414 124.907 24.4468 125.016 24.5656C125.807 25.4247 126.603 26.2783 127.409 27.1266C127.533 27.2562 127.468 27.3156 127.368 27.4048C126.36 28.3179 125.162 28.8771 123.853 29.1769C120.712 29.8928 117.891 29.2553 115.552 26.9995C114.084 25.5841 113.367 23.7849 113.259 21.7507C113.248 21.5562 113.257 21.3563 113.257 21.1592Z" fill="#141820"/>
<path d="M109.51 21.2C109.51 23.7204 109.505 26.2408 109.518 28.7612C109.521 29.0368 109.437 29.08 109.188 29.0746C108.066 29.0611 106.944 29.0638 105.822 29.0746C105.6 29.0773 105.54 29.0206 105.54 28.7964C105.546 23.7258 105.546 18.6526 105.54 13.582C105.54 13.3659 105.586 13.2984 105.817 13.3011C106.958 13.3146 108.101 13.3146 109.242 13.3011C109.467 13.2984 109.516 13.3578 109.516 13.5767C109.507 16.1186 109.51 18.6607 109.51 21.2Z" fill="#141820"/>
<path d="M110.058 7.9892C110.055 9.33724 108.963 10.3448 107.502 10.3448C106.093 10.3421 104.99 9.29669 104.987 7.96493C104.987 6.6845 106.109 5.55258 107.57 5.59852C108.995 5.64167 110.058 6.62499 110.058 7.9892Z" fill="#141820"/>
</svg>
