<svg width="34" height="34" viewBox="0 0 34 34" fill="none" xmlns="http://www.w3.org/2000/svg">
<path d="M30.505 10.0749C30.5266 10.3769 30.5266 10.679 30.5266 10.981C30.5266 20.1929 23.5152 30.8071 10.7005 30.8071C6.75252 30.8071 3.08504 29.6637 0 27.679C0.560934 27.7437 1.10022 27.7653 1.68273 27.7653C4.94029 27.7653 7.93907 26.665 10.3337 24.7881C7.27029 24.7234 4.70302 22.717 3.81849 19.9556C4.25 20.0203 4.68144 20.0635 5.13453 20.0635C5.76014 20.0635 6.38582 19.9771 6.96827 19.8262C3.77539 19.1789 1.38065 16.3744 1.38065 12.9873V12.9011C2.30828 13.4188 3.38705 13.7424 4.53037 13.7855C2.65346 12.5342 1.42382 10.3985 1.42382 7.98223C1.42382 6.68784 1.76893 5.50129 2.37303 4.46575C5.80324 8.69417 10.9594 11.4555 16.741 11.7576C16.6332 11.2399 16.5684 10.7006 16.5684 10.1612C16.5684 6.32108 19.675 3.19295 23.5367 3.19295C25.543 3.19295 27.3552 4.03431 28.6281 5.39345C30.2029 5.09143 31.713 4.50892 33.0507 3.71072C32.5328 5.32877 31.4326 6.68791 29.9872 7.55079C31.3895 7.39985 32.7486 7.01144 33.9999 6.47215C33.0508 7.8528 31.8642 9.08245 30.505 10.0749Z" fill="white"/>
</svg>
